<mxfile host="app.diagrams.net" agent="Mozilla/5.0 (Windows NT 10.0; Win64; x64) AppleWebKit/537.36 (KHTML, like Gecko) Chrome/128.0.0.0 Safari/537.36 Edg/128.0.0.0" version="24.7.7">
  <diagram name="페이지-1" id="rkUs9c8UB0Ho9LC84erf">
    <mxGraphModel grid="1" page="1" gridSize="10" guides="1" tooltips="1" connect="1" arrows="1" fold="1" pageScale="1" pageWidth="827" pageHeight="1169" math="0" shadow="0">
      <root>
        <mxCell id="0" />
        <mxCell id="1" parent="0" />
        <mxCell id="eY9MDIgdmLIyUeY3WFj0-3" value="" style="edgeStyle=orthogonalEdgeStyle;rounded=0;orthogonalLoop=1;jettySize=auto;html=1;" edge="1" parent="1" source="eY9MDIgdmLIyUeY3WFj0-1" target="eY9MDIgdmLIyUeY3WFj0-2">
          <mxGeometry relative="1" as="geometry" />
        </mxCell>
        <mxCell id="eY9MDIgdmLIyUeY3WFj0-1" value="시작" style="rounded=0;whiteSpace=wrap;html=1;" vertex="1" parent="1">
          <mxGeometry x="360" y="150" width="120" height="60" as="geometry" />
        </mxCell>
        <mxCell id="eY9MDIgdmLIyUeY3WFj0-5" value="" style="edgeStyle=orthogonalEdgeStyle;rounded=0;orthogonalLoop=1;jettySize=auto;html=1;" edge="1" parent="1" source="eY9MDIgdmLIyUeY3WFj0-2" target="eY9MDIgdmLIyUeY3WFj0-4">
          <mxGeometry relative="1" as="geometry" />
        </mxCell>
        <mxCell id="eY9MDIgdmLIyUeY3WFj0-13" value="" style="edgeStyle=orthogonalEdgeStyle;rounded=0;orthogonalLoop=1;jettySize=auto;html=1;" edge="1" parent="1" source="eY9MDIgdmLIyUeY3WFj0-2" target="eY9MDIgdmLIyUeY3WFj0-12">
          <mxGeometry relative="1" as="geometry" />
        </mxCell>
        <mxCell id="eY9MDIgdmLIyUeY3WFj0-2" value="메뉴에&lt;br&gt;마우스 올림" style="rounded=0;whiteSpace=wrap;html=1;" vertex="1" parent="1">
          <mxGeometry x="360" y="290" width="120" height="60" as="geometry" />
        </mxCell>
        <mxCell id="eY9MDIgdmLIyUeY3WFj0-7" value="" style="edgeStyle=orthogonalEdgeStyle;rounded=0;orthogonalLoop=1;jettySize=auto;html=1;" edge="1" parent="1" source="eY9MDIgdmLIyUeY3WFj0-4" target="eY9MDIgdmLIyUeY3WFj0-6">
          <mxGeometry relative="1" as="geometry" />
        </mxCell>
        <mxCell id="eY9MDIgdmLIyUeY3WFj0-4" value="마우스 감지" style="rounded=0;whiteSpace=wrap;html=1;" vertex="1" parent="1">
          <mxGeometry x="360" y="430" width="120" height="60" as="geometry" />
        </mxCell>
        <mxCell id="eY9MDIgdmLIyUeY3WFj0-9" value="" style="edgeStyle=orthogonalEdgeStyle;rounded=0;orthogonalLoop=1;jettySize=auto;html=1;" edge="1" parent="1" source="eY9MDIgdmLIyUeY3WFj0-6" target="eY9MDIgdmLIyUeY3WFj0-8">
          <mxGeometry relative="1" as="geometry" />
        </mxCell>
        <mxCell id="eY9MDIgdmLIyUeY3WFj0-6" value="메뉴의 바탕 초록색&lt;br&gt;글씨는 하얀색으로&amp;nbsp;&lt;div&gt;바뀜&lt;/div&gt;" style="rounded=0;whiteSpace=wrap;html=1;" vertex="1" parent="1">
          <mxGeometry x="360" y="570" width="120" height="60" as="geometry" />
        </mxCell>
        <mxCell id="eY9MDIgdmLIyUeY3WFj0-11" value="" style="edgeStyle=orthogonalEdgeStyle;rounded=0;orthogonalLoop=1;jettySize=auto;html=1;" edge="1" parent="1" source="eY9MDIgdmLIyUeY3WFj0-8" target="eY9MDIgdmLIyUeY3WFj0-10">
          <mxGeometry relative="1" as="geometry" />
        </mxCell>
        <mxCell id="eY9MDIgdmLIyUeY3WFj0-8" value="마우스 제거" style="rounded=0;whiteSpace=wrap;html=1;" vertex="1" parent="1">
          <mxGeometry x="360" y="710" width="120" height="60" as="geometry" />
        </mxCell>
        <mxCell id="eY9MDIgdmLIyUeY3WFj0-14" style="edgeStyle=orthogonalEdgeStyle;rounded=0;orthogonalLoop=1;jettySize=auto;html=1;exitX=0;exitY=0.5;exitDx=0;exitDy=0;entryX=0;entryY=0.5;entryDx=0;entryDy=0;" edge="1" parent="1" source="eY9MDIgdmLIyUeY3WFj0-10" target="eY9MDIgdmLIyUeY3WFj0-2">
          <mxGeometry relative="1" as="geometry">
            <Array as="points">
              <mxPoint x="280" y="880" />
              <mxPoint x="280" y="320" />
            </Array>
          </mxGeometry>
        </mxCell>
        <mxCell id="eY9MDIgdmLIyUeY3WFj0-10" value="마지막으로 올렸던&lt;br&gt;메뉴에 색 그대로&amp;nbsp;&lt;br&gt;남아있음" style="rounded=0;whiteSpace=wrap;html=1;" vertex="1" parent="1">
          <mxGeometry x="360" y="850" width="120" height="60" as="geometry" />
        </mxCell>
        <mxCell id="eY9MDIgdmLIyUeY3WFj0-12" value="&lt;div&gt;마우스&lt;/div&gt;올리지 않음" style="rounded=0;whiteSpace=wrap;html=1;" vertex="1" parent="1">
          <mxGeometry x="500" y="360" width="120" height="60" as="geometry" />
        </mxCell>
        <mxCell id="eY9MDIgdmLIyUeY3WFj0-15" value="&lt;h1 style=&quot;margin-top: 0px;&quot;&gt;Target Event&lt;/h1&gt;&lt;p&gt;메뉴에 마우스를 올리면&amp;nbsp;&lt;/p&gt;&lt;p&gt;바탕과 글씨색이 바뀌는 기능&lt;/p&gt;" style="text;html=1;whiteSpace=wrap;overflow=hidden;rounded=0;" vertex="1" parent="1">
          <mxGeometry x="80" y="90" width="190" height="100" as="geometry" />
        </mxCell>
        <mxCell id="eY9MDIgdmLIyUeY3WFj0-16" value="&lt;h1 style=&quot;margin-top: 0px;&quot;&gt;&lt;font style=&quot;font-size: 12px;&quot;&gt;https://codepen.io/Studio-kei/pen/xxoPRLR&lt;/font&gt;&lt;br&gt;&lt;/h1&gt;" style="text;html=1;whiteSpace=wrap;overflow=hidden;rounded=0;" vertex="1" parent="1">
          <mxGeometry x="80" y="960" width="570" height="40" as="geometry" />
        </mxCell>
      </root>
    </mxGraphModel>
  </diagram>
</mxfile>
